<?xml version="1.0" encoding="utf-8" standalone="no"?>
<!DOCTYPE svg PUBLIC "-//W3C//DTD SVG 1.1//EN"
  "http://www.w3.org/Graphics/SVG/1.1/DTD/svg11.dtd">
<svg xmlns:xlink="http://www.w3.org/1999/xlink" width="254.571391pt" height="335.420847pt" viewBox="0 0 254.571391 335.420847" xmlns="http://www.w3.org/2000/svg" version="1.1">
 <metadata>
  <rdf:RDF xmlns:dc="http://purl.org/dc/elements/1.1/" xmlns:cc="http://creativecommons.org/ns#" xmlns:rdf="http://www.w3.org/1999/02/22-rdf-syntax-ns#">
   <cc:Work>
    <dc:type rdf:resource="http://purl.org/dc/dcmitype/StillImage"/>
    <dc:date>2025-09-22T18:32:31.232332</dc:date>
    <dc:format>image/svg+xml</dc:format>
    <dc:creator>
     <cc:Agent>
      <dc:title>Matplotlib v3.10.6, https://matplotlib.org/</dc:title>
     </cc:Agent>
    </dc:creator>
   </cc:Work>
  </rdf:RDF>
 </metadata>
 <defs>
  <style type="text/css">*{stroke-linejoin: round; stroke-linecap: butt}</style>
 </defs>
 <g id="figure_1">
  <g id="patch_1">
   <path d="M 0 335.420847 
L 254.571391 335.420847 
L 254.571391 0 
L 0 0 
z
" style="fill: #ffffff"/>
  </g>
  <g id="axes_1">
   <g id="patch_2">
    <path d="M 36.323281 128.983817 
L 247.371391 128.983817 
L 247.371391 28.345312 
L 36.323281 28.345312 
z
" style="fill: #ffffff"/>
   </g>
   <g id="patch_3">
    <path d="M 45.916377 115.832194 
L 65.594523 115.832194 
L 65.594523 68.331147 
L 45.916377 68.331147 
z
" clip-path="url(#p11872efa7a)" style="fill: #77a8cd; stroke: #000000; stroke-linejoin: miter"/>
   </g>
   <g id="patch_4">
    <path d="M 70.514059 108.017462 
L 90.192204 108.017462 
L 90.192204 59.794845 
L 70.514059 59.794845 
z
" clip-path="url(#p11872efa7a)" style="fill: #77a8cd; stroke: #000000; stroke-linejoin: miter"/>
   </g>
   <g id="patch_5">
    <path d="M 95.111741 93.041494 
L 114.789886 93.041494 
L 114.789886 73.273216 
L 95.111741 73.273216 
z
" clip-path="url(#p11872efa7a)" style="fill: #77a8cd; stroke: #000000; stroke-linejoin: miter"/>
   </g>
   <g id="patch_6">
    <path d="M 119.709423 78.664565 
L 139.387568 78.664565 
L 139.387568 69.229705 
L 119.709423 69.229705 
z
" clip-path="url(#p11872efa7a)" style="fill: #77a8cd; stroke: #000000; stroke-linejoin: miter"/>
   </g>
   <g id="patch_7">
    <path d="M 144.307105 78.664565 
L 163.98525 78.664565 
L 163.98525 49.982591 
L 144.307105 49.982591 
z
" clip-path="url(#p11872efa7a)" style="fill: #77a8cd; stroke: #000000; stroke-linejoin: miter"/>
   </g>
   <g id="patch_8">
    <path d="M 168.904786 81.809518 
L 188.582932 81.809518 
L 188.582932 49.910706 
L 168.904786 49.910706 
z
" clip-path="url(#p11872efa7a)" style="fill: #77a8cd; stroke: #000000; stroke-linejoin: miter"/>
   </g>
   <g id="patch_9">
    <path d="M 193.502468 84.954471 
L 213.180614 84.954471 
L 213.180614 50.709425 
L 193.502468 50.709425 
z
" clip-path="url(#p11872efa7a)" style="fill: #77a8cd; stroke: #000000; stroke-linejoin: miter"/>
   </g>
   <g id="patch_10">
    <path d="M 218.10015 88.448864 
L 237.778296 88.448864 
L 237.778296 50.359985 
L 218.10015 50.359985 
z
" clip-path="url(#p11872efa7a)" style="fill: #77a8cd; stroke: #000000; stroke-linejoin: miter"/>
   </g>
   <g id="matplotlib.axis_1">
    <g id="xtick_1">
     <g id="line2d_1">
      <defs>
       <path id="m7984fcf130" d="M 0 0 
L 0 3 
" style="stroke: #000000"/>
      </defs>
      <g>
       <use xlink:href="#m7984fcf130" x="55.75545" y="128.983817" style="stroke: #000000"/>
      </g>
     </g>
     <g id="text_1">
      <!-- CAISO -->
      <g transform="translate(51.876836 156.853791) rotate(-60) scale(0.07 -0.07)">
       <defs>
        <path id="ArialMT-43" d="M 3763 1606 
L 4369 1453 
Q 4178 706 3683 314 
Q 3188 -78 2472 -78 
Q 1731 -78 1267 223 
Q 803 525 561 1097 
Q 319 1669 319 2325 
Q 319 3041 592 3573 
Q 866 4106 1370 4382 
Q 1875 4659 2481 4659 
Q 3169 4659 3637 4309 
Q 4106 3959 4291 3325 
L 3694 3184 
Q 3534 3684 3231 3912 
Q 2928 4141 2469 4141 
Q 1941 4141 1586 3887 
Q 1231 3634 1087 3207 
Q 944 2781 944 2328 
Q 944 1744 1114 1308 
Q 1284 872 1643 656 
Q 2003 441 2422 441 
Q 2931 441 3284 734 
Q 3638 1028 3763 1606 
z
" transform="scale(0.015625)"/>
        <path id="ArialMT-41" d="M -9 0 
L 1750 4581 
L 2403 4581 
L 4278 0 
L 3588 0 
L 3053 1388 
L 1138 1388 
L 634 0 
L -9 0 
z
M 1313 1881 
L 2866 1881 
L 2388 3150 
Q 2169 3728 2063 4100 
Q 1975 3659 1816 3225 
L 1313 1881 
z
" transform="scale(0.015625)"/>
        <path id="ArialMT-49" d="M 597 0 
L 597 4581 
L 1203 4581 
L 1203 0 
L 597 0 
z
" transform="scale(0.015625)"/>
        <path id="ArialMT-53" d="M 288 1472 
L 859 1522 
Q 900 1178 1048 958 
Q 1197 738 1509 602 
Q 1822 466 2213 466 
Q 2559 466 2825 569 
Q 3091 672 3220 851 
Q 3350 1031 3350 1244 
Q 3350 1459 3225 1620 
Q 3100 1781 2813 1891 
Q 2628 1963 1997 2114 
Q 1366 2266 1113 2400 
Q 784 2572 623 2826 
Q 463 3081 463 3397 
Q 463 3744 659 4045 
Q 856 4347 1234 4503 
Q 1613 4659 2075 4659 
Q 2584 4659 2973 4495 
Q 3363 4331 3572 4012 
Q 3781 3694 3797 3291 
L 3216 3247 
Q 3169 3681 2898 3903 
Q 2628 4125 2100 4125 
Q 1550 4125 1298 3923 
Q 1047 3722 1047 3438 
Q 1047 3191 1225 3031 
Q 1400 2872 2139 2705 
Q 2878 2538 3153 2413 
Q 3553 2228 3743 1945 
Q 3934 1663 3934 1294 
Q 3934 928 3725 604 
Q 3516 281 3123 101 
Q 2731 -78 2241 -78 
Q 1619 -78 1198 103 
Q 778 284 539 648 
Q 300 1013 288 1472 
z
" transform="scale(0.015625)"/>
        <path id="ArialMT-4f" d="M 309 2231 
Q 309 3372 921 4017 
Q 1534 4663 2503 4663 
Q 3138 4663 3647 4359 
Q 4156 4056 4423 3514 
Q 4691 2972 4691 2284 
Q 4691 1588 4409 1038 
Q 4128 488 3612 205 
Q 3097 -78 2500 -78 
Q 1853 -78 1343 234 
Q 834 547 571 1087 
Q 309 1628 309 2231 
z
M 934 2222 
Q 934 1394 1379 917 
Q 1825 441 2497 441 
Q 3181 441 3623 922 
Q 4066 1403 4066 2288 
Q 4066 2847 3877 3264 
Q 3688 3681 3323 3911 
Q 2959 4141 2506 4141 
Q 1863 4141 1398 3698 
Q 934 3256 934 2222 
z
" transform="scale(0.015625)"/>
       </defs>
       <use xlink:href="#ArialMT-43"/>
       <use xlink:href="#ArialMT-41" transform="translate(72.216797 0)"/>
       <use xlink:href="#ArialMT-49" transform="translate(138.916016 0)"/>
       <use xlink:href="#ArialMT-53" transform="translate(166.699219 0)"/>
       <use xlink:href="#ArialMT-4f" transform="translate(233.398438 0)"/>
      </g>
     </g>
    </g>
    <g id="xtick_2">
     <g id="line2d_2">
      <g>
       <use xlink:href="#m7984fcf130" x="80.353132" y="128.983817" style="stroke: #000000"/>
      </g>
     </g>
     <g id="text_2">
      <!-- $^*$ERCOT -->
      <g transform="translate(74.687187 163.261852) rotate(-60) scale(0.07 -0.07)">
       <defs>
        <path id="DejaVuSans-2a" d="M 3009 3897 
L 1888 3291 
L 3009 2681 
L 2828 2375 
L 1778 3009 
L 1778 1831 
L 1422 1831 
L 1422 3009 
L 372 2375 
L 191 2681 
L 1313 3291 
L 191 3897 
L 372 4206 
L 1422 3572 
L 1422 4750 
L 1778 4750 
L 1778 3572 
L 2828 4206 
L 3009 3897 
z
" transform="scale(0.015625)"/>
        <path id="ArialMT-45" d="M 506 0 
L 506 4581 
L 3819 4581 
L 3819 4041 
L 1113 4041 
L 1113 2638 
L 3647 2638 
L 3647 2100 
L 1113 2100 
L 1113 541 
L 3925 541 
L 3925 0 
L 506 0 
z
" transform="scale(0.015625)"/>
        <path id="ArialMT-52" d="M 503 0 
L 503 4581 
L 2534 4581 
Q 3147 4581 3465 4457 
Q 3784 4334 3975 4021 
Q 4166 3709 4166 3331 
Q 4166 2844 3850 2509 
Q 3534 2175 2875 2084 
Q 3116 1969 3241 1856 
Q 3506 1613 3744 1247 
L 4541 0 
L 3778 0 
L 3172 953 
Q 2906 1366 2734 1584 
Q 2563 1803 2427 1890 
Q 2291 1978 2150 2013 
Q 2047 2034 1813 2034 
L 1109 2034 
L 1109 0 
L 503 0 
z
M 1109 2559 
L 2413 2559 
Q 2828 2559 3062 2645 
Q 3297 2731 3419 2920 
Q 3541 3109 3541 3331 
Q 3541 3656 3305 3865 
Q 3069 4075 2559 4075 
L 1109 4075 
L 1109 2559 
z
" transform="scale(0.015625)"/>
        <path id="ArialMT-54" d="M 1659 0 
L 1659 4041 
L 150 4041 
L 150 4581 
L 3781 4581 
L 3781 4041 
L 2266 4041 
L 2266 0 
L 1659 0 
z
" transform="scale(0.015625)"/>
       </defs>
       <use xlink:href="#DejaVuSans-2a" transform="translate(14.594727 39.046875) scale(0.7)"/>
       <use xlink:href="#ArialMT-45" transform="translate(65.966797 0.765625)"/>
       <use xlink:href="#ArialMT-52" transform="translate(132.666016 0.765625)"/>
       <use xlink:href="#ArialMT-43" transform="translate(204.882812 0.765625)"/>
       <use xlink:href="#ArialMT-4f" transform="translate(277.099609 0.765625)"/>
       <use xlink:href="#ArialMT-54" transform="translate(354.882812 0.765625)"/>
      </g>
     </g>
    </g>
    <g id="xtick_3">
     <g id="line2d_3">
      <g>
       <use xlink:href="#m7984fcf130" x="104.950814" y="128.983817" style="stroke: #000000"/>
      </g>
     </g>
     <g id="text_3">
      <!-- ISONE -->
      <g transform="translate(101.0722 156.853791) rotate(-60) scale(0.07 -0.07)">
       <defs>
        <path id="ArialMT-4e" d="M 488 0 
L 488 4581 
L 1109 4581 
L 3516 984 
L 3516 4581 
L 4097 4581 
L 4097 0 
L 3475 0 
L 1069 3600 
L 1069 0 
L 488 0 
z
" transform="scale(0.015625)"/>
       </defs>
       <use xlink:href="#ArialMT-49"/>
       <use xlink:href="#ArialMT-53" transform="translate(27.783203 0)"/>
       <use xlink:href="#ArialMT-4f" transform="translate(94.482422 0)"/>
       <use xlink:href="#ArialMT-4e" transform="translate(172.265625 0)"/>
       <use xlink:href="#ArialMT-45" transform="translate(244.482422 0)"/>
      </g>
     </g>
    </g>
    <g id="xtick_4">
     <g id="line2d_4">
      <g>
       <use xlink:href="#m7984fcf130" x="129.548495" y="128.983817" style="stroke: #000000"/>
      </g>
     </g>
     <g id="text_4">
      <!-- MISO -->
      <g transform="translate(126.643319 153.481704) rotate(-60) scale(0.07 -0.07)">
       <defs>
        <path id="ArialMT-4d" d="M 475 0 
L 475 4581 
L 1388 4581 
L 2472 1338 
Q 2622 884 2691 659 
Q 2769 909 2934 1394 
L 4031 4581 
L 4847 4581 
L 4847 0 
L 4263 0 
L 4263 3834 
L 2931 0 
L 2384 0 
L 1059 3900 
L 1059 0 
L 475 0 
z
" transform="scale(0.015625)"/>
       </defs>
       <use xlink:href="#ArialMT-4d"/>
       <use xlink:href="#ArialMT-49" transform="translate(83.300781 0)"/>
       <use xlink:href="#ArialMT-53" transform="translate(111.083984 0)"/>
       <use xlink:href="#ArialMT-4f" transform="translate(177.783203 0)"/>
      </g>
     </g>
    </g>
    <g id="xtick_5">
     <g id="line2d_5">
      <g>
       <use xlink:href="#m7984fcf130" x="154.146177" y="128.983817" style="stroke: #000000"/>
      </g>
     </g>
     <g id="text_5">
      <!-- $^*$NYISO -->
      <g transform="translate(149.145232 160.958224) rotate(-60) scale(0.07 -0.07)">
       <defs>
        <path id="ArialMT-59" d="M 1784 0 
L 1784 1941 
L 19 4581 
L 756 4581 
L 1659 3200 
Q 1909 2813 2125 2425 
Q 2331 2784 2625 3234 
L 3513 4581 
L 4219 4581 
L 2391 1941 
L 2391 0 
L 1784 0 
z
" transform="scale(0.015625)"/>
       </defs>
       <use xlink:href="#DejaVuSans-2a" transform="translate(14.594727 39.046875) scale(0.7)"/>
       <use xlink:href="#ArialMT-4e" transform="translate(65.966797 0.765625)"/>
       <use xlink:href="#ArialMT-59" transform="translate(138.183594 0.765625)"/>
       <use xlink:href="#ArialMT-49" transform="translate(204.882812 0.765625)"/>
       <use xlink:href="#ArialMT-53" transform="translate(232.666016 0.765625)"/>
       <use xlink:href="#ArialMT-4f" transform="translate(299.365234 0.765625)"/>
      </g>
     </g>
    </g>
    <g id="xtick_6">
     <g id="line2d_6">
      <g>
       <use xlink:href="#m7984fcf130" x="178.743859" y="128.983817" style="stroke: #000000"/>
      </g>
     </g>
     <g id="text_6">
      <!-- PJM -->
      <g transform="translate(176.811027 150.113407) rotate(-60) scale(0.07 -0.07)">
       <defs>
        <path id="ArialMT-50" d="M 494 0 
L 494 4581 
L 2222 4581 
Q 2678 4581 2919 4538 
Q 3256 4481 3484 4323 
Q 3713 4166 3852 3881 
Q 3991 3597 3991 3256 
Q 3991 2672 3619 2267 
Q 3247 1863 2275 1863 
L 1100 1863 
L 1100 0 
L 494 0 
z
M 1100 2403 
L 2284 2403 
Q 2872 2403 3119 2622 
Q 3366 2841 3366 3238 
Q 3366 3525 3220 3729 
Q 3075 3934 2838 4000 
Q 2684 4041 2272 4041 
L 1100 4041 
L 1100 2403 
z
" transform="scale(0.015625)"/>
        <path id="ArialMT-4a" d="M 184 1300 
L 731 1375 
Q 753 850 928 656 
Q 1103 463 1413 463 
Q 1641 463 1806 567 
Q 1972 672 2034 851 
Q 2097 1031 2097 1425 
L 2097 4581 
L 2703 4581 
L 2703 1459 
Q 2703 884 2564 568 
Q 2425 253 2123 87 
Q 1822 -78 1416 -78 
Q 813 -78 492 269 
Q 172 616 184 1300 
z
" transform="scale(0.015625)"/>
       </defs>
       <use xlink:href="#ArialMT-50"/>
       <use xlink:href="#ArialMT-4a" transform="translate(66.699219 0)"/>
       <use xlink:href="#ArialMT-4d" transform="translate(116.699219 0)"/>
      </g>
     </g>
    </g>
    <g id="xtick_7">
     <g id="line2d_7">
      <g>
       <use xlink:href="#m7984fcf130" x="203.341541" y="128.983817" style="stroke: #000000"/>
      </g>
     </g>
     <g id="text_7">
      <!-- SPP -->
      <g transform="translate(201.406795 150.120037) rotate(-60) scale(0.07 -0.07)">
       <use xlink:href="#ArialMT-53"/>
       <use xlink:href="#ArialMT-50" transform="translate(66.699219 0)"/>
       <use xlink:href="#ArialMT-50" transform="translate(133.398438 0)"/>
      </g>
     </g>
    </g>
    <g id="xtick_8">
     <g id="line2d_8">
      <g>
       <use xlink:href="#m7984fcf130" x="227.939223" y="128.983817" style="stroke: #000000"/>
      </g>
     </g>
     <g id="text_8">
      <!-- $^{**}$Other -->
      <g transform="translate(223.393278 159.382058) rotate(-60) scale(0.07 -0.07)">
       <defs>
        <path id="ArialMT-74" d="M 1650 503 
L 1731 6 
Q 1494 -44 1306 -44 
Q 1000 -44 831 53 
Q 663 150 594 308 
Q 525 466 525 972 
L 525 2881 
L 113 2881 
L 113 3319 
L 525 3319 
L 525 4141 
L 1084 4478 
L 1084 3319 
L 1650 3319 
L 1650 2881 
L 1084 2881 
L 1084 941 
Q 1084 700 1114 631 
Q 1144 563 1211 522 
Q 1278 481 1403 481 
Q 1497 481 1650 503 
z
" transform="scale(0.015625)"/>
        <path id="ArialMT-68" d="M 422 0 
L 422 4581 
L 984 4581 
L 984 2938 
Q 1378 3394 1978 3394 
Q 2347 3394 2619 3248 
Q 2891 3103 3008 2847 
Q 3125 2591 3125 2103 
L 3125 0 
L 2563 0 
L 2563 2103 
Q 2563 2525 2380 2717 
Q 2197 2909 1863 2909 
Q 1613 2909 1392 2779 
Q 1172 2650 1078 2428 
Q 984 2206 984 1816 
L 984 0 
L 422 0 
z
" transform="scale(0.015625)"/>
        <path id="ArialMT-65" d="M 2694 1069 
L 3275 997 
Q 3138 488 2766 206 
Q 2394 -75 1816 -75 
Q 1088 -75 661 373 
Q 234 822 234 1631 
Q 234 2469 665 2931 
Q 1097 3394 1784 3394 
Q 2450 3394 2872 2941 
Q 3294 2488 3294 1666 
Q 3294 1616 3291 1516 
L 816 1516 
Q 847 969 1125 678 
Q 1403 388 1819 388 
Q 2128 388 2347 550 
Q 2566 713 2694 1069 
z
M 847 1978 
L 2700 1978 
Q 2663 2397 2488 2606 
Q 2219 2931 1791 2931 
Q 1403 2931 1139 2672 
Q 875 2413 847 1978 
z
" transform="scale(0.015625)"/>
        <path id="ArialMT-72" d="M 416 0 
L 416 3319 
L 922 3319 
L 922 2816 
Q 1116 3169 1280 3281 
Q 1444 3394 1641 3394 
Q 1925 3394 2219 3213 
L 2025 2691 
Q 1819 2813 1613 2813 
Q 1428 2813 1281 2702 
Q 1134 2591 1072 2394 
Q 978 2094 978 1738 
L 978 0 
L 416 0 
z
" transform="scale(0.015625)"/>
       </defs>
       <use xlink:href="#DejaVuSans-2a" transform="translate(0.957031 39.046875) scale(0.7)"/>
       <use xlink:href="#DejaVuSans-2a" transform="translate(49.594727 39.046875) scale(0.7)"/>
       <use xlink:href="#ArialMT-4f" transform="translate(100.966797 0.765625)"/>
       <use xlink:href="#ArialMT-74" transform="translate(178.75 0.765625)"/>
       <use xlink:href="#ArialMT-68" transform="translate(206.533203 0.765625)"/>
       <use xlink:href="#ArialMT-65" transform="translate(262.148438 0.765625)"/>
       <use xlink:href="#ArialMT-72" transform="translate(317.763672 0.765625)"/>
      </g>
     </g>
    </g>
   </g>
   <g id="matplotlib.axis_2">
    <g id="ytick_1">
     <g id="line2d_9">
      <defs>
       <path id="med015a4797" d="M 0 0 
L -3 0 
" style="stroke: #000000"/>
      </defs>
      <g>
       <use xlink:href="#med015a4797" x="36.323281" y="128.983817" style="stroke: #000000"/>
      </g>
     </g>
     <g id="text_9">
      <!-- 0 -->
      <g transform="translate(25.930625 131.489051) scale(0.07 -0.07)">
       <defs>
        <path id="ArialMT-30" d="M 266 2259 
Q 266 3072 433 3567 
Q 600 4063 929 4331 
Q 1259 4600 1759 4600 
Q 2128 4600 2406 4451 
Q 2684 4303 2865 4023 
Q 3047 3744 3150 3342 
Q 3253 2941 3253 2259 
Q 3253 1453 3087 958 
Q 2922 463 2592 192 
Q 2263 -78 1759 -78 
Q 1097 -78 719 397 
Q 266 969 266 2259 
z
M 844 2259 
Q 844 1131 1108 757 
Q 1372 384 1759 384 
Q 2147 384 2411 759 
Q 2675 1134 2675 2259 
Q 2675 3391 2411 3762 
Q 2147 4134 1753 4134 
Q 1366 4134 1134 3806 
Q 844 3388 844 2259 
z
" transform="scale(0.015625)"/>
       </defs>
       <use xlink:href="#ArialMT-30"/>
      </g>
     </g>
    </g>
    <g id="ytick_2">
     <g id="line2d_10">
      <g>
       <use xlink:href="#med015a4797" x="36.323281" y="103.824191" style="stroke: #000000"/>
      </g>
     </g>
     <g id="text_10">
      <!-- 2 -->
      <g transform="translate(25.930625 106.329425) scale(0.07 -0.07)">
       <defs>
        <path id="ArialMT-32" d="M 3222 541 
L 3222 0 
L 194 0 
Q 188 203 259 391 
Q 375 700 629 1000 
Q 884 1300 1366 1694 
Q 2113 2306 2375 2664 
Q 2638 3022 2638 3341 
Q 2638 3675 2398 3904 
Q 2159 4134 1775 4134 
Q 1369 4134 1125 3890 
Q 881 3647 878 3216 
L 300 3275 
Q 359 3922 746 4261 
Q 1134 4600 1788 4600 
Q 2447 4600 2831 4234 
Q 3216 3869 3216 3328 
Q 3216 3053 3103 2787 
Q 2991 2522 2730 2228 
Q 2469 1934 1863 1422 
Q 1356 997 1212 845 
Q 1069 694 975 541 
L 3222 541 
z
" transform="scale(0.015625)"/>
       </defs>
       <use xlink:href="#ArialMT-32"/>
      </g>
     </g>
    </g>
    <g id="ytick_3">
     <g id="line2d_11">
      <g>
       <use xlink:href="#med015a4797" x="36.323281" y="78.664565" style="stroke: #000000"/>
      </g>
     </g>
     <g id="text_11">
      <!-- 4 -->
      <g transform="translate(25.930625 81.169799) scale(0.07 -0.07)">
       <defs>
        <path id="ArialMT-34" d="M 2069 0 
L 2069 1097 
L 81 1097 
L 81 1613 
L 2172 4581 
L 2631 4581 
L 2631 1613 
L 3250 1613 
L 3250 1097 
L 2631 1097 
L 2631 0 
L 2069 0 
z
M 2069 1613 
L 2069 3678 
L 634 1613 
L 2069 1613 
z
" transform="scale(0.015625)"/>
       </defs>
       <use xlink:href="#ArialMT-34"/>
      </g>
     </g>
    </g>
    <g id="ytick_4">
     <g id="line2d_12">
      <g>
       <use xlink:href="#med015a4797" x="36.323281" y="53.504939" style="stroke: #000000"/>
      </g>
     </g>
     <g id="text_12">
      <!-- 6 -->
      <g transform="translate(25.930625 56.010173) scale(0.07 -0.07)">
       <defs>
        <path id="ArialMT-36" d="M 3184 3459 
L 2625 3416 
Q 2550 3747 2413 3897 
Q 2184 4138 1850 4138 
Q 1581 4138 1378 3988 
Q 1113 3794 959 3422 
Q 806 3050 800 2363 
Q 1003 2672 1297 2822 
Q 1591 2972 1913 2972 
Q 2475 2972 2870 2558 
Q 3266 2144 3266 1488 
Q 3266 1056 3080 686 
Q 2894 316 2569 119 
Q 2244 -78 1831 -78 
Q 1128 -78 684 439 
Q 241 956 241 2144 
Q 241 3472 731 4075 
Q 1159 4600 1884 4600 
Q 2425 4600 2770 4297 
Q 3116 3994 3184 3459 
z
M 888 1484 
Q 888 1194 1011 928 
Q 1134 663 1356 523 
Q 1578 384 1822 384 
Q 2178 384 2434 671 
Q 2691 959 2691 1453 
Q 2691 1928 2437 2201 
Q 2184 2475 1800 2475 
Q 1419 2475 1153 2201 
Q 888 1928 888 1484 
z
" transform="scale(0.015625)"/>
       </defs>
       <use xlink:href="#ArialMT-36"/>
      </g>
     </g>
    </g>
    <g id="ytick_5">
     <g id="line2d_13">
      <g>
       <use xlink:href="#med015a4797" x="36.323281" y="28.345312" style="stroke: #000000"/>
      </g>
     </g>
     <g id="text_13">
      <!-- 8 -->
      <g transform="translate(25.930625 30.850547) scale(0.07 -0.07)">
       <defs>
        <path id="ArialMT-38" d="M 1131 2484 
Q 781 2613 612 2850 
Q 444 3088 444 3419 
Q 444 3919 803 4259 
Q 1163 4600 1759 4600 
Q 2359 4600 2725 4251 
Q 3091 3903 3091 3403 
Q 3091 3084 2923 2848 
Q 2756 2613 2416 2484 
Q 2838 2347 3058 2040 
Q 3278 1734 3278 1309 
Q 3278 722 2862 322 
Q 2447 -78 1769 -78 
Q 1091 -78 675 323 
Q 259 725 259 1325 
Q 259 1772 486 2073 
Q 713 2375 1131 2484 
z
M 1019 3438 
Q 1019 3113 1228 2906 
Q 1438 2700 1772 2700 
Q 2097 2700 2305 2904 
Q 2513 3109 2513 3406 
Q 2513 3716 2298 3927 
Q 2084 4138 1766 4138 
Q 1444 4138 1231 3931 
Q 1019 3725 1019 3438 
z
M 838 1322 
Q 838 1081 952 856 
Q 1066 631 1291 507 
Q 1516 384 1775 384 
Q 2178 384 2440 643 
Q 2703 903 2703 1303 
Q 2703 1709 2433 1975 
Q 2163 2241 1756 2241 
Q 1359 2241 1098 1978 
Q 838 1716 838 1322 
z
" transform="scale(0.015625)"/>
       </defs>
       <use xlink:href="#ArialMT-38"/>
      </g>
     </g>
    </g>
    <g id="text_14">
     <!-- Event duration -->
     <g transform="translate(12.951156 101.233549) rotate(-90) scale(0.07 -0.07)">
      <defs>
       <path id="ArialMT-76" d="M 1344 0 
L 81 3319 
L 675 3319 
L 1388 1331 
Q 1503 1009 1600 663 
Q 1675 925 1809 1294 
L 2547 3319 
L 3125 3319 
L 1869 0 
L 1344 0 
z
" transform="scale(0.015625)"/>
       <path id="ArialMT-6e" d="M 422 0 
L 422 3319 
L 928 3319 
L 928 2847 
Q 1294 3394 1984 3394 
Q 2284 3394 2536 3286 
Q 2788 3178 2913 3003 
Q 3038 2828 3088 2588 
Q 3119 2431 3119 2041 
L 3119 0 
L 2556 0 
L 2556 2019 
Q 2556 2363 2490 2533 
Q 2425 2703 2258 2804 
Q 2091 2906 1866 2906 
Q 1506 2906 1245 2678 
Q 984 2450 984 1813 
L 984 0 
L 422 0 
z
" transform="scale(0.015625)"/>
       <path id="ArialMT-20" transform="scale(0.015625)"/>
       <path id="ArialMT-64" d="M 2575 0 
L 2575 419 
Q 2259 -75 1647 -75 
Q 1250 -75 917 144 
Q 584 363 401 755 
Q 219 1147 219 1656 
Q 219 2153 384 2558 
Q 550 2963 881 3178 
Q 1213 3394 1622 3394 
Q 1922 3394 2156 3267 
Q 2391 3141 2538 2938 
L 2538 4581 
L 3097 4581 
L 3097 0 
L 2575 0 
z
M 797 1656 
Q 797 1019 1065 703 
Q 1334 388 1700 388 
Q 2069 388 2326 689 
Q 2584 991 2584 1609 
Q 2584 2291 2321 2609 
Q 2059 2928 1675 2928 
Q 1300 2928 1048 2622 
Q 797 2316 797 1656 
z
" transform="scale(0.015625)"/>
       <path id="ArialMT-75" d="M 2597 0 
L 2597 488 
Q 2209 -75 1544 -75 
Q 1250 -75 995 37 
Q 741 150 617 320 
Q 494 491 444 738 
Q 409 903 409 1263 
L 409 3319 
L 972 3319 
L 972 1478 
Q 972 1038 1006 884 
Q 1059 663 1231 536 
Q 1403 409 1656 409 
Q 1909 409 2131 539 
Q 2353 669 2445 892 
Q 2538 1116 2538 1541 
L 2538 3319 
L 3100 3319 
L 3100 0 
L 2597 0 
z
" transform="scale(0.015625)"/>
       <path id="ArialMT-61" d="M 2588 409 
Q 2275 144 1986 34 
Q 1697 -75 1366 -75 
Q 819 -75 525 192 
Q 231 459 231 875 
Q 231 1119 342 1320 
Q 453 1522 633 1644 
Q 813 1766 1038 1828 
Q 1203 1872 1538 1913 
Q 2219 1994 2541 2106 
Q 2544 2222 2544 2253 
Q 2544 2597 2384 2738 
Q 2169 2928 1744 2928 
Q 1347 2928 1158 2789 
Q 969 2650 878 2297 
L 328 2372 
Q 403 2725 575 2942 
Q 747 3159 1072 3276 
Q 1397 3394 1825 3394 
Q 2250 3394 2515 3294 
Q 2781 3194 2906 3042 
Q 3031 2891 3081 2659 
Q 3109 2516 3109 2141 
L 3109 1391 
Q 3109 606 3145 398 
Q 3181 191 3288 0 
L 2700 0 
Q 2613 175 2588 409 
z
M 2541 1666 
Q 2234 1541 1622 1453 
Q 1275 1403 1131 1340 
Q 988 1278 909 1158 
Q 831 1038 831 891 
Q 831 666 1001 516 
Q 1172 366 1500 366 
Q 1825 366 2078 508 
Q 2331 650 2450 897 
Q 2541 1088 2541 1459 
L 2541 1666 
z
" transform="scale(0.015625)"/>
       <path id="ArialMT-69" d="M 425 3934 
L 425 4581 
L 988 4581 
L 988 3934 
L 425 3934 
z
M 425 0 
L 425 3319 
L 988 3319 
L 988 0 
L 425 0 
z
" transform="scale(0.015625)"/>
       <path id="ArialMT-6f" d="M 213 1659 
Q 213 2581 725 3025 
Q 1153 3394 1769 3394 
Q 2453 3394 2887 2945 
Q 3322 2497 3322 1706 
Q 3322 1066 3130 698 
Q 2938 331 2570 128 
Q 2203 -75 1769 -75 
Q 1072 -75 642 372 
Q 213 819 213 1659 
z
M 791 1659 
Q 791 1022 1069 705 
Q 1347 388 1769 388 
Q 2188 388 2466 706 
Q 2744 1025 2744 1678 
Q 2744 2294 2464 2611 
Q 2184 2928 1769 2928 
Q 1347 2928 1069 2612 
Q 791 2297 791 1659 
z
" transform="scale(0.015625)"/>
      </defs>
      <use xlink:href="#ArialMT-45"/>
      <use xlink:href="#ArialMT-76" transform="translate(66.699219 0)"/>
      <use xlink:href="#ArialMT-65" transform="translate(116.699219 0)"/>
      <use xlink:href="#ArialMT-6e" transform="translate(172.314453 0)"/>
      <use xlink:href="#ArialMT-74" transform="translate(227.929688 0)"/>
      <use xlink:href="#ArialMT-20" transform="translate(255.712891 0)"/>
      <use xlink:href="#ArialMT-64" transform="translate(283.496094 0)"/>
      <use xlink:href="#ArialMT-75" transform="translate(339.111328 0)"/>
      <use xlink:href="#ArialMT-72" transform="translate(394.726562 0)"/>
      <use xlink:href="#ArialMT-61" transform="translate(428.027344 0)"/>
      <use xlink:href="#ArialMT-74" transform="translate(483.642578 0)"/>
      <use xlink:href="#ArialMT-69" transform="translate(511.425781 0)"/>
      <use xlink:href="#ArialMT-6f" transform="translate(533.642578 0)"/>
      <use xlink:href="#ArialMT-6e" transform="translate(589.257812 0)"/>
     </g>
     <!-- (hours) -->
     <g transform="translate(20.457344 89.749721) rotate(-90) scale(0.07 -0.07)">
      <defs>
       <path id="ArialMT-28" d="M 1497 -1347 
Q 1031 -759 709 28 
Q 388 816 388 1659 
Q 388 2403 628 3084 
Q 909 3875 1497 4659 
L 1900 4659 
Q 1522 4009 1400 3731 
Q 1209 3300 1100 2831 
Q 966 2247 966 1656 
Q 966 153 1900 -1347 
L 1497 -1347 
z
" transform="scale(0.015625)"/>
       <path id="ArialMT-73" d="M 197 991 
L 753 1078 
Q 800 744 1014 566 
Q 1228 388 1613 388 
Q 2000 388 2187 545 
Q 2375 703 2375 916 
Q 2375 1106 2209 1216 
Q 2094 1291 1634 1406 
Q 1016 1563 777 1677 
Q 538 1791 414 1992 
Q 291 2194 291 2438 
Q 291 2659 392 2848 
Q 494 3038 669 3163 
Q 800 3259 1026 3326 
Q 1253 3394 1513 3394 
Q 1903 3394 2198 3281 
Q 2494 3169 2634 2976 
Q 2775 2784 2828 2463 
L 2278 2388 
Q 2241 2644 2061 2787 
Q 1881 2931 1553 2931 
Q 1166 2931 1000 2803 
Q 834 2675 834 2503 
Q 834 2394 903 2306 
Q 972 2216 1119 2156 
Q 1203 2125 1616 2013 
Q 2213 1853 2448 1751 
Q 2684 1650 2818 1456 
Q 2953 1263 2953 975 
Q 2953 694 2789 445 
Q 2625 197 2315 61 
Q 2006 -75 1616 -75 
Q 969 -75 630 194 
Q 291 463 197 991 
z
" transform="scale(0.015625)"/>
       <path id="ArialMT-29" d="M 791 -1347 
L 388 -1347 
Q 1322 153 1322 1656 
Q 1322 2244 1188 2822 
Q 1081 3291 891 3722 
Q 769 4003 388 4659 
L 791 4659 
Q 1378 3875 1659 3084 
Q 1900 2403 1900 1659 
Q 1900 816 1576 28 
Q 1253 -759 791 -1347 
z
" transform="scale(0.015625)"/>
      </defs>
      <use xlink:href="#ArialMT-28"/>
      <use xlink:href="#ArialMT-68" transform="translate(33.300781 0)"/>
      <use xlink:href="#ArialMT-6f" transform="translate(88.916016 0)"/>
      <use xlink:href="#ArialMT-75" transform="translate(144.53125 0)"/>
      <use xlink:href="#ArialMT-72" transform="translate(200.146484 0)"/>
      <use xlink:href="#ArialMT-73" transform="translate(233.447266 0)"/>
      <use xlink:href="#ArialMT-29" transform="translate(283.447266 0)"/>
     </g>
    </g>
   </g>
   <g id="patch_11">
    <path d="M 36.323281 128.983817 
L 36.323281 28.345312 
" style="fill: none; stroke: #000000; stroke-linejoin: miter; stroke-linecap: square"/>
   </g>
   <g id="patch_12">
    <path d="M 247.371391 128.983817 
L 247.371391 28.345312 
" style="fill: none; stroke: #000000; stroke-linejoin: miter; stroke-linecap: square"/>
   </g>
   <g id="patch_13">
    <path d="M 36.323281 128.983817 
L 247.371391 128.983817 
" style="fill: none; stroke: #000000; stroke-linejoin: miter; stroke-linecap: square"/>
   </g>
   <g id="patch_14">
    <path d="M 36.323281 28.345312 
L 247.371391 28.345312 
" style="fill: none; stroke: #000000; stroke-linejoin: miter; stroke-linecap: square"/>
   </g>
   <g id="text_15">
    <!-- b. -->
    <g transform="translate(12.323281 14.357812) scale(0.1 -0.1)">
     <defs>
      <path id="ArialMT-62" d="M 941 0 
L 419 0 
L 419 4581 
L 981 4581 
L 981 2947 
Q 1338 3394 1891 3394 
Q 2197 3394 2470 3270 
Q 2744 3147 2920 2923 
Q 3097 2700 3197 2384 
Q 3297 2069 3297 1709 
Q 3297 856 2875 390 
Q 2453 -75 1863 -75 
Q 1275 -75 941 416 
L 941 0 
z
M 934 1684 
Q 934 1088 1097 822 
Q 1363 388 1816 388 
Q 2184 388 2453 708 
Q 2722 1028 2722 1663 
Q 2722 2313 2464 2622 
Q 2206 2931 1841 2931 
Q 1472 2931 1203 2611 
Q 934 2291 934 1684 
z
" transform="scale(0.015625)"/>
      <path id="ArialMT-2e" d="M 581 0 
L 581 641 
L 1222 641 
L 1222 0 
L 581 0 
z
" transform="scale(0.015625)"/>
     </defs>
     <use xlink:href="#ArialMT-62"/>
     <use xlink:href="#ArialMT-2e" transform="translate(55.615234 0)"/>
    </g>
   </g>
  </g>
  <g id="axes_2">
   <g id="patch_15">
    <path d="M 36.323281 297.126981 
L 247.371391 297.126981 
L 247.371391 196.488476 
L 36.323281 196.488476 
z
" style="fill: #ffffff"/>
   </g>
   <g id="patch_16">
    <path d="M 45.916377 297.126981 
L 64.11018 297.126981 
L 64.11018 226.680027 
L 45.916377 226.680027 
z
" clip-path="url(#pcc2540467e)" style="fill: #e2ecf7; stroke: #000000; stroke-linejoin: miter"/>
   </g>
   <g id="patch_17">
    <path d="M 70.726108 297.126981 
L 88.919911 297.126981 
L 88.919911 281.02482 
L 70.726108 281.02482 
z
" clip-path="url(#pcc2540467e)" style="fill: #e2ecf7; stroke: #000000; stroke-linejoin: miter"/>
   </g>
   <g id="patch_18">
    <path d="M 95.535839 297.126981 
L 113.729641 297.126981 
L 113.729641 216.616177 
L 95.535839 216.616177 
z
" clip-path="url(#pcc2540467e)" style="fill: #e2ecf7; stroke: #000000; stroke-linejoin: miter"/>
   </g>
   <g id="patch_19">
    <path d="M 120.34557 297.126981 
L 138.539372 297.126981 
L 138.539372 283.03759 
L 120.34557 283.03759 
z
" clip-path="url(#pcc2540467e)" style="fill: #e2ecf7; stroke: #000000; stroke-linejoin: miter"/>
   </g>
   <g id="patch_20">
    <path d="M 145.1553 297.126981 
L 163.349103 297.126981 
L 163.349103 287.06313 
L 145.1553 287.06313 
z
" clip-path="url(#pcc2540467e)" style="fill: #e2ecf7; stroke: #000000; stroke-linejoin: miter"/>
   </g>
   <g id="patch_21">
    <path d="M 169.965031 297.126981 
L 188.158834 297.126981 
L 188.158834 280.219712 
L 169.965031 280.219712 
z
" clip-path="url(#pcc2540467e)" style="fill: #e2ecf7; stroke: #000000; stroke-linejoin: miter"/>
   </g>
   <g id="patch_22">
    <path d="M 194.774762 297.126981 
L 212.968565 297.126981 
L 212.968565 283.03759 
L 194.774762 283.03759 
z
" clip-path="url(#pcc2540467e)" style="fill: #e2ecf7; stroke: #000000; stroke-linejoin: miter"/>
   </g>
   <g id="patch_23">
    <path d="M 219.584493 297.126981 
L 237.778296 297.126981 
L 237.778296 280.219712 
L 219.584493 280.219712 
z
" clip-path="url(#pcc2540467e)" style="fill: #e2ecf7; stroke: #000000; stroke-linejoin: miter"/>
   </g>
   <g id="matplotlib.axis_3">
    <g id="xtick_9">
     <g id="line2d_14">
      <g>
       <use xlink:href="#m7984fcf130" x="55.013278" y="297.126981" style="stroke: #000000"/>
      </g>
     </g>
     <g id="text_16">
      <!-- CAISO -->
      <g transform="translate(51.134665 324.996955) rotate(-60) scale(0.07 -0.07)">
       <use xlink:href="#ArialMT-43"/>
       <use xlink:href="#ArialMT-41" transform="translate(72.216797 0)"/>
       <use xlink:href="#ArialMT-49" transform="translate(138.916016 0)"/>
       <use xlink:href="#ArialMT-53" transform="translate(166.699219 0)"/>
       <use xlink:href="#ArialMT-4f" transform="translate(233.398438 0)"/>
      </g>
     </g>
    </g>
    <g id="xtick_10">
     <g id="line2d_15">
      <g>
       <use xlink:href="#m7984fcf130" x="79.823009" y="297.126981" style="stroke: #000000"/>
      </g>
     </g>
     <g id="text_17">
      <!-- ERCOT -->
      <g transform="translate(75.265177 327.349837) rotate(-60) scale(0.07 -0.07)">
       <use xlink:href="#ArialMT-45"/>
       <use xlink:href="#ArialMT-52" transform="translate(66.699219 0)"/>
       <use xlink:href="#ArialMT-43" transform="translate(138.916016 0)"/>
       <use xlink:href="#ArialMT-4f" transform="translate(211.132812 0)"/>
       <use xlink:href="#ArialMT-54" transform="translate(288.916016 0)"/>
      </g>
     </g>
    </g>
    <g id="xtick_11">
     <g id="line2d_16">
      <g>
       <use xlink:href="#m7984fcf130" x="104.63274" y="297.126981" style="stroke: #000000"/>
      </g>
     </g>
     <g id="text_18">
      <!-- ISONE -->
      <g transform="translate(100.754127 324.996955) rotate(-60) scale(0.07 -0.07)">
       <use xlink:href="#ArialMT-49"/>
       <use xlink:href="#ArialMT-53" transform="translate(27.783203 0)"/>
       <use xlink:href="#ArialMT-4f" transform="translate(94.482422 0)"/>
       <use xlink:href="#ArialMT-4e" transform="translate(172.265625 0)"/>
       <use xlink:href="#ArialMT-45" transform="translate(244.482422 0)"/>
      </g>
     </g>
    </g>
    <g id="xtick_12">
     <g id="line2d_17">
      <g>
       <use xlink:href="#m7984fcf130" x="129.442471" y="297.126981" style="stroke: #000000"/>
      </g>
     </g>
     <g id="text_19">
      <!-- MISO -->
      <g transform="translate(126.537295 321.624868) rotate(-60) scale(0.07 -0.07)">
       <use xlink:href="#ArialMT-4d"/>
       <use xlink:href="#ArialMT-49" transform="translate(83.300781 0)"/>
       <use xlink:href="#ArialMT-53" transform="translate(111.083984 0)"/>
       <use xlink:href="#ArialMT-4f" transform="translate(177.783203 0)"/>
      </g>
     </g>
    </g>
    <g id="xtick_13">
     <g id="line2d_18">
      <g>
       <use xlink:href="#m7984fcf130" x="154.252202" y="297.126981" style="stroke: #000000"/>
      </g>
     </g>
     <g id="text_20">
      <!-- NYISO -->
      <g transform="translate(150.373588 324.996955) rotate(-60) scale(0.07 -0.07)">
       <use xlink:href="#ArialMT-4e"/>
       <use xlink:href="#ArialMT-59" transform="translate(72.216797 0)"/>
       <use xlink:href="#ArialMT-49" transform="translate(138.916016 0)"/>
       <use xlink:href="#ArialMT-53" transform="translate(166.699219 0)"/>
       <use xlink:href="#ArialMT-4f" transform="translate(233.398438 0)"/>
      </g>
     </g>
    </g>
    <g id="xtick_14">
     <g id="line2d_19">
      <g>
       <use xlink:href="#m7984fcf130" x="179.061933" y="297.126981" style="stroke: #000000"/>
      </g>
     </g>
     <g id="text_21">
      <!-- PJM -->
      <g transform="translate(177.1291 318.256571) rotate(-60) scale(0.07 -0.07)">
       <use xlink:href="#ArialMT-50"/>
       <use xlink:href="#ArialMT-4a" transform="translate(66.699219 0)"/>
       <use xlink:href="#ArialMT-4d" transform="translate(116.699219 0)"/>
      </g>
     </g>
    </g>
    <g id="xtick_15">
     <g id="line2d_20">
      <g>
       <use xlink:href="#m7984fcf130" x="203.871663" y="297.126981" style="stroke: #000000"/>
      </g>
     </g>
     <g id="text_22">
      <!-- SPP -->
      <g transform="translate(201.936917 318.263201) rotate(-60) scale(0.07 -0.07)">
       <use xlink:href="#ArialMT-53"/>
       <use xlink:href="#ArialMT-50" transform="translate(66.699219 0)"/>
       <use xlink:href="#ArialMT-50" transform="translate(133.398438 0)"/>
      </g>
     </g>
    </g>
    <g id="xtick_16">
     <g id="line2d_21">
      <g>
       <use xlink:href="#m7984fcf130" x="228.681394" y="297.126981" style="stroke: #000000"/>
      </g>
     </g>
     <g id="text_23">
      <!-- $^{**}$Other -->
      <g transform="translate(224.135449 327.525222) rotate(-60) scale(0.07 -0.07)">
       <use xlink:href="#DejaVuSans-2a" transform="translate(0.957031 39.046875) scale(0.7)"/>
       <use xlink:href="#DejaVuSans-2a" transform="translate(49.594727 39.046875) scale(0.7)"/>
       <use xlink:href="#ArialMT-4f" transform="translate(100.966797 0.765625)"/>
       <use xlink:href="#ArialMT-74" transform="translate(178.75 0.765625)"/>
       <use xlink:href="#ArialMT-68" transform="translate(206.533203 0.765625)"/>
       <use xlink:href="#ArialMT-65" transform="translate(262.148438 0.765625)"/>
       <use xlink:href="#ArialMT-72" transform="translate(317.763672 0.765625)"/>
      </g>
     </g>
    </g>
   </g>
   <g id="matplotlib.axis_4">
    <g id="ytick_6">
     <g id="line2d_22">
      <g>
       <use xlink:href="#med015a4797" x="36.323281" y="297.126981" style="stroke: #000000"/>
      </g>
     </g>
     <g id="text_24">
      <!-- 0 -->
      <g transform="translate(25.930625 299.632215) scale(0.07 -0.07)">
       <use xlink:href="#ArialMT-30"/>
      </g>
     </g>
    </g>
    <g id="ytick_7">
     <g id="line2d_23">
      <g>
       <use xlink:href="#med015a4797" x="36.323281" y="276.99928" style="stroke: #000000"/>
      </g>
     </g>
     <g id="text_25">
      <!-- 50 -->
      <g transform="translate(22.037969 279.504514) scale(0.07 -0.07)">
       <defs>
        <path id="ArialMT-35" d="M 266 1200 
L 856 1250 
Q 922 819 1161 601 
Q 1400 384 1738 384 
Q 2144 384 2425 690 
Q 2706 997 2706 1503 
Q 2706 1984 2436 2262 
Q 2166 2541 1728 2541 
Q 1456 2541 1237 2417 
Q 1019 2294 894 2097 
L 366 2166 
L 809 4519 
L 3088 4519 
L 3088 3981 
L 1259 3981 
L 1013 2750 
Q 1425 3038 1878 3038 
Q 2478 3038 2890 2622 
Q 3303 2206 3303 1553 
Q 3303 931 2941 478 
Q 2500 -78 1738 -78 
Q 1113 -78 717 272 
Q 322 622 266 1200 
z
" transform="scale(0.015625)"/>
       </defs>
       <use xlink:href="#ArialMT-35"/>
       <use xlink:href="#ArialMT-30" transform="translate(55.615234 0)"/>
      </g>
     </g>
    </g>
    <g id="ytick_8">
     <g id="line2d_24">
      <g>
       <use xlink:href="#med015a4797" x="36.323281" y="256.871579" style="stroke: #000000"/>
      </g>
     </g>
     <g id="text_26">
      <!-- 100 -->
      <g transform="translate(18.145313 259.376813) scale(0.07 -0.07)">
       <defs>
        <path id="ArialMT-31" d="M 2384 0 
L 1822 0 
L 1822 3584 
Q 1619 3391 1289 3197 
Q 959 3003 697 2906 
L 697 3450 
Q 1169 3672 1522 3987 
Q 1875 4303 2022 4600 
L 2384 4600 
L 2384 0 
z
" transform="scale(0.015625)"/>
       </defs>
       <use xlink:href="#ArialMT-31"/>
       <use xlink:href="#ArialMT-30" transform="translate(55.615234 0)"/>
       <use xlink:href="#ArialMT-30" transform="translate(111.230469 0)"/>
      </g>
     </g>
    </g>
    <g id="ytick_9">
     <g id="line2d_25">
      <g>
       <use xlink:href="#med015a4797" x="36.323281" y="236.743878" style="stroke: #000000"/>
      </g>
     </g>
     <g id="text_27">
      <!-- 150 -->
      <g transform="translate(18.145313 239.249112) scale(0.07 -0.07)">
       <use xlink:href="#ArialMT-31"/>
       <use xlink:href="#ArialMT-35" transform="translate(55.615234 0)"/>
       <use xlink:href="#ArialMT-30" transform="translate(111.230469 0)"/>
      </g>
     </g>
    </g>
    <g id="ytick_10">
     <g id="line2d_26">
      <g>
       <use xlink:href="#med015a4797" x="36.323281" y="216.616177" style="stroke: #000000"/>
      </g>
     </g>
     <g id="text_28">
      <!-- 200 -->
      <g transform="translate(18.145313 219.121411) scale(0.07 -0.07)">
       <use xlink:href="#ArialMT-32"/>
       <use xlink:href="#ArialMT-30" transform="translate(55.615234 0)"/>
       <use xlink:href="#ArialMT-30" transform="translate(111.230469 0)"/>
      </g>
     </g>
    </g>
    <g id="ytick_11">
     <g id="line2d_27">
      <g>
       <use xlink:href="#med015a4797" x="36.323281" y="196.488476" style="stroke: #000000"/>
      </g>
     </g>
     <g id="text_29">
      <!-- 250 -->
      <g transform="translate(18.145313 198.993711) scale(0.07 -0.07)">
       <use xlink:href="#ArialMT-32"/>
       <use xlink:href="#ArialMT-35" transform="translate(55.615234 0)"/>
       <use xlink:href="#ArialMT-30" transform="translate(111.230469 0)"/>
      </g>
     </g>
    </g>
    <g id="text_30">
     <!-- Maximum Price ($/kW) -->
     <g transform="translate(12.672031 282.19601) rotate(-90) scale(0.07 -0.07)">
      <defs>
       <path id="ArialMT-78" d="M 47 0 
L 1259 1725 
L 138 3319 
L 841 3319 
L 1350 2541 
Q 1494 2319 1581 2169 
Q 1719 2375 1834 2534 
L 2394 3319 
L 3066 3319 
L 1919 1756 
L 3153 0 
L 2463 0 
L 1781 1031 
L 1600 1309 
L 728 0 
L 47 0 
z
" transform="scale(0.015625)"/>
       <path id="ArialMT-6d" d="M 422 0 
L 422 3319 
L 925 3319 
L 925 2853 
Q 1081 3097 1340 3245 
Q 1600 3394 1931 3394 
Q 2300 3394 2536 3241 
Q 2772 3088 2869 2813 
Q 3263 3394 3894 3394 
Q 4388 3394 4653 3120 
Q 4919 2847 4919 2278 
L 4919 0 
L 4359 0 
L 4359 2091 
Q 4359 2428 4304 2576 
Q 4250 2725 4106 2815 
Q 3963 2906 3769 2906 
Q 3419 2906 3187 2673 
Q 2956 2441 2956 1928 
L 2956 0 
L 2394 0 
L 2394 2156 
Q 2394 2531 2256 2718 
Q 2119 2906 1806 2906 
Q 1569 2906 1367 2781 
Q 1166 2656 1075 2415 
Q 984 2175 984 1722 
L 984 0 
L 422 0 
z
" transform="scale(0.015625)"/>
       <path id="ArialMT-63" d="M 2588 1216 
L 3141 1144 
Q 3050 572 2676 248 
Q 2303 -75 1759 -75 
Q 1078 -75 664 370 
Q 250 816 250 1647 
Q 250 2184 428 2587 
Q 606 2991 970 3192 
Q 1334 3394 1763 3394 
Q 2303 3394 2647 3120 
Q 2991 2847 3088 2344 
L 2541 2259 
Q 2463 2594 2264 2762 
Q 2066 2931 1784 2931 
Q 1359 2931 1093 2626 
Q 828 2322 828 1663 
Q 828 994 1084 691 
Q 1341 388 1753 388 
Q 2084 388 2306 591 
Q 2528 794 2588 1216 
z
" transform="scale(0.015625)"/>
       <path id="ArialMT-24" d="M 1594 -659 
L 1594 -97 
Q 1172 -44 908 92 
Q 644 228 451 531 
Q 259 834 228 1272 
L 794 1378 
Q 859 925 1025 713 
Q 1263 413 1594 378 
L 1594 2169 
Q 1247 2234 884 2438 
Q 616 2588 470 2853 
Q 325 3119 325 3456 
Q 325 4056 750 4428 
Q 1034 4678 1594 4734 
L 1594 5003 
L 1925 5003 
L 1925 4734 
Q 2416 4688 2703 4447 
Q 3072 4141 3147 3606 
L 2566 3519 
Q 2516 3850 2358 4026 
Q 2200 4203 1925 4259 
L 1925 2638 
Q 2350 2531 2488 2472 
Q 2750 2356 2915 2190 
Q 3081 2025 3170 1797 
Q 3259 1569 3259 1303 
Q 3259 719 2887 328 
Q 2516 -63 1925 -91 
L 1925 -659 
L 1594 -659 
z
M 1594 4266 
Q 1266 4216 1077 4003 
Q 888 3791 888 3500 
Q 888 3213 1048 3019 
Q 1209 2825 1594 2709 
L 1594 4266 
z
M 1925 378 
Q 2253 419 2467 662 
Q 2681 906 2681 1266 
Q 2681 1572 2529 1758 
Q 2378 1944 1925 2091 
L 1925 378 
z
" transform="scale(0.015625)"/>
       <path id="ArialMT-2f" d="M 0 -78 
L 1328 4659 
L 1778 4659 
L 453 -78 
L 0 -78 
z
" transform="scale(0.015625)"/>
       <path id="ArialMT-6b" d="M 425 0 
L 425 4581 
L 988 4581 
L 988 1969 
L 2319 3319 
L 3047 3319 
L 1778 2088 
L 3175 0 
L 2481 0 
L 1384 1697 
L 988 1316 
L 988 0 
L 425 0 
z
" transform="scale(0.015625)"/>
       <path id="ArialMT-57" d="M 1294 0 
L 78 4581 
L 700 4581 
L 1397 1578 
Q 1509 1106 1591 641 
Q 1766 1375 1797 1488 
L 2669 4581 
L 3400 4581 
L 4056 2263 
Q 4303 1400 4413 641 
Q 4500 1075 4641 1638 
L 5359 4581 
L 5969 4581 
L 4713 0 
L 4128 0 
L 3163 3491 
Q 3041 3928 3019 4028 
Q 2947 3713 2884 3491 
L 1913 0 
L 1294 0 
z
" transform="scale(0.015625)"/>
      </defs>
      <use xlink:href="#ArialMT-4d"/>
      <use xlink:href="#ArialMT-61" transform="translate(83.300781 0)"/>
      <use xlink:href="#ArialMT-78" transform="translate(138.916016 0)"/>
      <use xlink:href="#ArialMT-69" transform="translate(188.916016 0)"/>
      <use xlink:href="#ArialMT-6d" transform="translate(211.132812 0)"/>
      <use xlink:href="#ArialMT-75" transform="translate(294.433594 0)"/>
      <use xlink:href="#ArialMT-6d" transform="translate(350.048828 0)"/>
      <use xlink:href="#ArialMT-20" transform="translate(433.349609 0)"/>
      <use xlink:href="#ArialMT-50" transform="translate(461.132812 0)"/>
      <use xlink:href="#ArialMT-72" transform="translate(527.832031 0)"/>
      <use xlink:href="#ArialMT-69" transform="translate(561.132812 0)"/>
      <use xlink:href="#ArialMT-63" transform="translate(583.349609 0)"/>
      <use xlink:href="#ArialMT-65" transform="translate(633.349609 0)"/>
      <use xlink:href="#ArialMT-20" transform="translate(688.964844 0)"/>
      <use xlink:href="#ArialMT-28" transform="translate(716.748047 0)"/>
      <use xlink:href="#ArialMT-24" transform="translate(750.048828 0)"/>
      <use xlink:href="#ArialMT-2f" transform="translate(805.664062 0)"/>
      <use xlink:href="#ArialMT-6b" transform="translate(833.447266 0)"/>
      <use xlink:href="#ArialMT-57" transform="translate(883.447266 0)"/>
      <use xlink:href="#ArialMT-29" transform="translate(977.832031 0)"/>
     </g>
    </g>
   </g>
   <g id="patch_24">
    <path d="M 36.323281 297.126981 
L 36.323281 196.488476 
" style="fill: none; stroke: #000000; stroke-linejoin: miter; stroke-linecap: square"/>
   </g>
   <g id="patch_25">
    <path d="M 247.371391 297.126981 
L 247.371391 196.488476 
" style="fill: none; stroke: #000000; stroke-linejoin: miter; stroke-linecap: square"/>
   </g>
   <g id="patch_26">
    <path d="M 36.323281 297.126981 
L 247.371391 297.126981 
" style="fill: none; stroke: #000000; stroke-linejoin: miter; stroke-linecap: square"/>
   </g>
   <g id="patch_27">
    <path d="M 36.323281 196.488476 
L 247.371391 196.488476 
" style="fill: none; stroke: #000000; stroke-linejoin: miter; stroke-linecap: square"/>
   </g>
   <g id="text_31">
    <!-- c. -->
    <g transform="translate(12.323281 182.500976) scale(0.1 -0.1)">
     <use xlink:href="#ArialMT-63"/>
     <use xlink:href="#ArialMT-2e" transform="translate(50 0)"/>
    </g>
   </g>
  </g>
 </g>
 <defs>
  <clipPath id="p11872efa7a">
   <rect x="36.323281" y="28.345312" width="211.04811" height="100.638504"/>
  </clipPath>
  <clipPath id="pcc2540467e">
   <rect x="36.323281" y="196.488476" width="211.04811" height="100.638504"/>
  </clipPath>
 </defs>
</svg>
